ply
format ascii 1.0
comment Created by Open Asset Import Library - http://assimp.sf.net (v5.2.3481089591)
element vertex 721
property float x
property float y
property float z
property float s
property float t
element face 779
property list uchar int vertex_index
end_header
210 -46.3143997 -264.354004 0.0611299984 0.671339989
210 -69.4484024 -283.617004 0.0611299984 0.652260005
180 -69.4484024 -283.617004 0.0858199969 0.652260005
180 -44.9406013 -265.75 0.0858199969 0.672479987
240 -47.0984993 -263.557007 0.0364499986 0.670700014
240 -69.4484024 -283.617004 0.0364499986 0.652260005
-210 -56.7402992 297.307007 0.0588999987 0.364850014
-210 -36.0513992 275.463013 0.0588999987 0.382869989
-269.911011 -61.669899 270.55899 0.00960000046 0.386909992
-249.384003 -56.7402992 287.54599 0.0264899991 0.372900009
-180 -56.7402992 297.307007 0.0835900009 0.364850014
-180 -34.527401 276.700989 0.0835900009 0.381850004
-150 -56.7402992 297.307007 0.342700005 0.05889
-150 -31.9846992 278.766998 0.342700005 0.0793099999
-180 -34.527401 276.700989 0.318010002 0.0772100016
-180 -56.7402992 297.307007 0.318010002 0.05889
-120 -56.7402992 297.307007 0.367379993 0.05889
-120 -29.7350006 280.593994 0.367379993 0.0811600015
-90 -56.7402992 297.307007 0.392069995 0.05889
-90 -27.7723007 282.188995 0.392069995 0.0827800035
-60 -56.7402992 297.307007 0.416759998 0.05889
-60 -28.1942005 281.846008 0.416759998 0.0824299976
-30 -56.7402992 297.307007 0.44145 0.05889
-30 -30.8593006 279.681 0.44145 0.0802299976
0 -56.7402992 297.307007 0.466129988 0.05889
0 -31.5953007 279.083008 0.466129988 0.0796300024
30 -56.7402992 297.307007 0.490819991 0.05889
30 -30.1109009 280.289001 0.490819991 0.0808499977
60 -56.7402992 297.307007 0.515510023 0.05889
60 -30.4129009 280.042999 0.515510023 0.0806000009
90 -56.7402992 297.307007 0.540199995 0.05889
90 -31.0102997 279.558014 0.540199995 0.0801099986
120 -56.7402992 297.307007 0.564880013 0.05889
120 -31.3097992 279.315002 0.564880013 0.0798600018
150 -56.7402992 297.307007 0.589569986 0.05889
150 -32.2515984 278.549988 0.589569986 0.0790899992
180 -56.7402992 297.307007 0.614260018 0.05889
180 -33.4860992 277.546997 0.614260018 0.0780699998
210 -56.7402992 297.307007 0.63894999 0.05889
210 -34.2139015 276.955994 0.63894999 0.0774699971
240 -56.7402992 297.307007 0.663630009 0.05889
240 -35.6137009 275.817993 0.663630009 0.0763100013
270.703003 -63.7961006 280.412994 0.454479992 0.378789991
274.269989 -50.4291992 258.989014 0.457419991 0.396450013
240 -35.6137009 275.817993 0.429210007 0.382569999
240 -56.7402992 297.307007 0.429210007 0.364850014
300.239014 -68.8827972 275.483002 0.403569996 0.655019999
295.292999 -71.4524002 251.925995 0.42295 0.652899981
274.269989 -50.4291992 258.989014 0.417140007 0.670239985
270.703003 -63.7961006 280.412994 0.399509996 0.65921998
273.690002 -43.8390007 -263.575989 0.00872000027 0.673380017
267.174011 -58.6104012 -288.880005 0.0140800001 0.661199987
298.360992 -57.8037987 -268.372986 0.803160012 0.32438001
292.329987 -67.0851974 -296.256989 0.798200011 0.347369999
267.174011 -58.6104012 -288.880005 0.777499974 0.341289997
273.690002 -43.8390007 -263.575989 0.782859981 0.320419997
-210 -30.8946991 240 0.0588999987 0.412110001
-240 -34.6646004 240 0.0342100002 0.412110001
-180 -21.7318993 240 0.0835900009 0.412110001
-150 -31.9846992 278.766998 0.108280003 0.380140007
-150 -15.7158003 240 0.108280003 0.412110001
-120 -29.7350006 280.593994 0.132960007 0.378639996
-120 -0.863839984 240 0.132960007 0.412110001
-90 -27.7723007 282.188995 0.157649994 0.377319992
-90 1.24995005 240 0.157649994 0.412110001
-60 -28.1942005 281.846008 0.182339996 0.377600014
-60 2.35443997 240 0.182339996 0.412110001
-30 -30.8593006 279.681 0.207029998 0.379390001
-30 -0.529680014 240 0.207029998 0.412110001
0 -31.5953007 279.083008 0.231710002 0.379880011
0 -10.3467999 240 0.231710002 0.412110001
30 -30.1109009 280.289001 0.256399989 0.378890008
30 -8.35179043 240 0.256399989 0.412110001
60 -30.4129009 280.042999 0.281089991 0.379090011
60 -11.2047997 240 0.281089991 0.412110001
90 -31.0102997 279.558014 0.305779994 0.379489988
90 -7.16295004 240 0.305779994 0.412110001
120 -31.3097992 279.315002 0.330460012 0.379689991
120 -10.9145002 240 0.330460012 0.412110001
150 -32.2515984 278.549988 0.355150014 0.380320013
150 -17.9673004 240 0.355150014 0.412110001
180 -33.4860992 277.546997 0.379839987 0.381150007
180 -18.9230003 240 0.379839987 0.412110001
210 -34.2139015 276.955994 0.404529989 0.381639987
210 -21.0445004 240 0.404529989 0.412110001
240 -28.7576008 240 0.429210007 0.412110001
271.338989 -44.3302994 240 0.455000013 0.412110001
295.292999 -71.4524002 251.925995 0.474720001 0.402280003
295.207001 -62.6581993 240 0.474649996 0.412110001
0 -40.8516006 -269.904999 0.233950004 0.675849974
0 -69.4484024 -283.617004 0.233950004 0.652260005
-30 -69.4484024 -283.617004 0.258630008 0.652260005
-30 -39.6660004 -271.109985 0.258630008 0.676829994
-240 -31.4298992 210 0.0342100002 0.436859995
-270.980011 -52.2612991 234.679993 0.00872000027 0.416500002
-210 -16.5219994 210 0.0588999987 0.436859995
-180 -5.23344994 210 0.0835900009 0.436859995
-150 13.1732998 210 0.108280003 0.436859995
-120 42.9752007 210 0.132960007 0.436859995
-90 1.24995005 240 0.541530013 0.374419987
-90 54.0861015 210 0.541530013 0.417989999
-120 42.9752007 210 0.516849995 0.408829987
-120 -0.863839984 240 0.516849995 0.372669995
-60 2.35443997 240 0.566219985 0.375330001
-60 41.9306984 210 0.566219985 0.407970011
-30 -0.529680014 240 0.590910017 0.372949988
-30 28.8423004 210 0.590910017 0.397170007
0 27.1940002 210 0.231710002 0.436859995
-30 28.8423004 210 0.207029998 0.436859995
30 -8.35179043 240 0.640280008 0.36649999
30 17.2227993 210 0.640280008 0.387589991
0 27.1940002 210 0.61559999 0.395810008
0 -10.3467999 240 0.61559999 0.364850014
60 3.57417011 210 0.281089991 0.436859995
30 17.2227993 210 0.256399989 0.436859995
90 8.31282043 210 0.305779994 0.436859995
120 7.09817982 210 0.330460012 0.436859995
150 -1.53360999 210 0.355150014 0.436859995
180 -1.98680997 210 0.379839987 0.436859995
210 -3.47780991 210 0.404529989 0.436859995
240 -20.6686993 210 0.429210007 0.436859995
272.807007 -42.0712013 210 0.456209987 0.436859995
295.207001 -62.6581993 210 0.474649996 0.436859995
-270.980011 -52.2612991 234.679993 0.765450001 0.700349987
-266.622009 -45.7148018 184.748001 0.724359989 0.705749989
-287.200012 -67.5780029 184.748001 0.724359989 0.687720001
-287.200012 -67.5780029 244.582001 0.773599982 0.687720001
-240 -27.4375992 180 0.0342100002 0.461600006
-266.622009 -45.7148018 184.748001 0.0123100001 0.457679987
-210 -2.76573992 180 0.0588999987 0.461600006
-180 -5.23344994 210 0.745140016 0.739139974
-180 32.1202011 180 0.720449984 0.769940019
-210 -2.76573992 180 0.720449984 0.741169989
-210 -16.5219994 210 0.745140016 0.729830027
-150 13.1732998 210 0.745140016 0.754320025
-150 69.793602 180 0.720449984 0.801010013
-120 100.973 180 0.516849995 0.456660002
-150 69.793602 180 0.492159992 0.430940002
-150 13.1732998 210 0.492159992 0.384249985
-90 136.697006 180 0.541530013 0.486119986
-60 103.886002 180 0.566219985 0.459060013
-30 84.7822037 180 0.590910017 0.443309993
0 72.9521027 180 0.61559999 0.43355
30 39.7154007 180 0.640280008 0.40614
60 21.5186996 180 0.281089991 0.461600006
30 39.7154007 180 0.256399989 0.461600006
90 22.9248009 187.404007 0.305779994 0.455489993
120 32.6878014 180 0.330460012 0.461600006
150 34.3566017 180 0.355150014 0.461600006
180 -1.98680997 210 0.763719976 0.371749997
180 31.5389996 180 0.763719976 0.399399996
150 34.3566017 180 0.739030004 0.401719987
150 -1.53360999 210 0.739030004 0.372119993
210 -3.47780991 210 0.788410008 0.370519996
210 17.3097 180 0.788410008 0.387659997
240 -9.6996603 180 0.429210007 0.461600006
210 17.3097 180 0.404529989 0.461600006
273.509003 -40.9911003 180 0.45679 0.461600006
295.207001 -62.6581993 180 0.474649996 0.461600006
-268.580994 -43.7155991 154.748001 0.699670017 0.707400024
-287.200012 -67.5780029 154.748001 0.699670017 0.687720001
-240 -16.0093994 150 0.0342100002 0.486339986
-268.580994 -43.7155991 154.748001 0.0106899999 0.482419997
-210 24.1933994 150 0.695760012 0.763400018
-240 -16.0093994 150 0.695760012 0.730250001
-240 -27.4375992 180 0.720449984 0.72082001
-180 55.7873001 150 0.695760012 0.789460003
-150 91.0951004 150 0.695760012 0.818579972
-120 100.973 180 0.720449984 0.826730013
-120 122.805 150 0.695760012 0.84473002
-90 136.697006 180 0.67088002 0.00910999998
-90 132.244003 150 0.67088002 0.0338499993
-120 122.805 150 0.646189988 0.0338499993
-120 100.973 180 0.646189988 0.00910999998
-60 103.886002 180 0.720449984 0.829129994
-60 162.643005 150 0.695760012 0.877579987
-90 132.244003 150 0.695760012 0.852509975
-90 136.697006 180 0.720449984 0.856190026
-30 172.725998 150 0.590910017 0.51582998
-60 162.643005 150 0.566219985 0.50752002
0 121.264 150 0.61559999 0.473390013
30 39.7154007 180 0.966589987 0.280119985
30 70.5413971 150 0.991280019 0.305539995
0 121.264 150 0.991280019 0.347369999
0 72.9521027 180 0.966589987 0.307529986
60 21.5186996 180 0.664969981 0.39113
60 59.0591011 150 0.664969981 0.422089994
30 70.5413971 150 0.640280008 0.43156001
90 22.9248009 187.404007 0.689660013 0.392289996
90 55.4730988 162.115005 0.689660013 0.419129997
120 32.6878014 180 0.714349985 0.400339991
120 66.6362991 150 0.714349985 0.428339988
150 71.5280991 150 0.739030004 0.432379991
180 68.2900009 150 0.763719976 0.429699987
210 36.2421989 150 0.788410008 0.403270006
240 -9.6996603 180 0.00872000027 0.0785100013
240 -4.50469017 150 0.0334100015 0.0827900022
210 36.2421989 150 0.0334100015 0.116389997
210 17.3097 180 0.00872000027 0.100780003
274.714996 -39.1348991 150 0.457780004 0.486339986
240 -4.50469017 150 0.429210007 0.486339986
295.207001 -62.6581993 180 0.31516999 0.123719998
295.207001 -62.6581993 150 0.339850008 0.123719998
274.714996 -39.1348991 150 0.339850008 0.143120006
273.509003 -40.9911003 180 0.31516999 0.141589999
-271.760986 -40.4719009 120 0.67106998 0.710070014
-287.200012 -67.5780029 120 0.67106998 0.687720001
-240 4.86455011 120 0.67106998 0.747460008
-210 48.3134003 120 0.67106998 0.783299983
-180 55.7873001 150 0.899770021 0.198929995
-180 72.0126038 120 0.899770021 0.223670006
-210 48.3134003 120 0.875090003 0.223670006
-210 24.1933994 150 0.875090003 0.198929995
-150 91.0951004 150 0.924459994 0.198929995
-150 83.6760025 120 0.924459994 0.223670006
-120 122.805 150 0.949150026 0.198929995
-120 96.4910965 120 0.949150026 0.223670006
-90 129.026001 120 0.67106998 0.849860013
-120 96.4910965 120 0.67106998 0.823029995
-60 184.966995 120 0.67106998 0.896000028
-30 172.725998 150 0.695760012 0.885900021
-30 276.26001 120 0.67106998 0.971289992
0 203.102005 120 0.61559999 0.540889978
-30 276.26001 120 0.590910017 0.601220012
30 141.393005 120 0.640280008 0.489989996
60 127.692001 120 0.664969981 0.478689998
90 120.248001 135.886993 0.689660013 0.472559988
120 131.389999 120 0.714349985 0.481739998
150 131.401001 120 0.739030004 0.481750011
180 93.8647995 120 0.763719976 0.450800002
210 36.0112991 120 0.0581 0.1162
180 93.8647995 120 0.0581 0.16392
180 68.2900009 150 0.0334100015 0.142820001
240 -2.57622004 120 0.0581 0.0843800008
276.27301 -36.7373009 120 0.459060013 0.511080027
240 -2.57622004 120 0.429210007 0.511080027
295.207001 -62.6581993 120 0.364540011 0.123719998
276.27301 -36.7373009 120 0.364540011 0.145099998
-276.205994 -35.9379005 90 0.646390021 0.713810027
-287.200012 -67.5780029 90 0.646390021 0.687720001
-240 8.21990013 90 0.646390021 0.750230014
-210 41.2112007 90 0.646390021 0.777440012
-180 46.9135017 90 0.899770021 0.248410001
-210 41.2112007 90 0.875090003 0.248410001
-150 46.6290016 90 0.924459994 0.248410001
-120 96.4910965 120 0.431360006 0.145480007
-120 67.5867004 90 0.431360006 0.121639997
-150 46.6290016 90 0.456050009 0.104350001
-150 83.6760025 120 0.456050009 0.134910002
-90 134.460999 90 0.646390021 0.854340017
-120 67.5867004 90 0.646390021 0.799189985
-60 209.188995 90 0.646390021 0.915970027
-30 300.480988 90 0.646390021 0.991259992
0 203.102005 120 0.887419999 0.0730699971
0 227.970993 90 0.912109971 0.0935800001
-30 300.480988 90 0.912109971 0.153380007
-30 276.26001 120 0.887419999 0.133399993
30 141.393005 120 0.713010013 0.00910999998
30 207.643997 90 0.713010013 0.0338499993
0 227.970993 90 0.688319981 0.0338499993
0 203.102005 120 0.688319981 0.00910999998
60 208.268005 90 0.664969981 0.545149982
30 207.643997 90 0.640280008 0.544629991
90 215.955002 90 0.689660013 0.551479995
120 214.557007 90 0.714349985 0.550329983
150 142.257004 90 0.739030004 0.49070999
180 87.6691971 90 0.0827800035 0.158810005
150 142.257004 90 0.0827800035 0.203830004
150 131.401001 120 0.0581 0.194869995
210 22.5622997 90 0.0827800035 0.105109997
240 -5.99463987 90 0.429210007 0.535820007
210 22.5622997 90 0.404529989 0.535820007
210 36.0112991 120 0.404529989 0.511080027
276.570007 -36.2801018 90 0.459309995 0.535820007
295.207001 -62.6581993 90 0.389230013 0.123719998
276.570007 -36.2801018 90 0.389230013 0.145480007
-275.803986 -36.3476982 60 0.621699989 0.713479996
-287.200012 -67.5780029 60 0.621699989 0.687720001
-240 8.21990013 90 0.850399971 0.248410001
-240 -1.50446999 60 0.850399971 0.273149997
-275.803986 -36.3476982 60 0.820940018 0.273149997
-276.205994 -35.9379005 90 0.820609987 0.248410001
-210 15.5184002 60 0.875090003 0.273149997
-180 22.1457005 60 0.899770021 0.273149997
-150 46.6290016 90 0.646390021 0.781910002
-157.727997 51.3404007 65.0259018 0.625840008 0.785790026
-180 22.1457005 60 0.621699989 0.761720002
-180 46.9135017 90 0.646390021 0.782140017
-120 67.5867004 90 0.903050005 0.665279984
-120 80.0652008 67.3131027 0.903050005 0.683990002
-157.727997 51.3404007 65.0259018 0.872009993 0.685880005
-150 46.6290016 90 0.878369987 0.665279984
-90 185.992004 60 0.621699989 0.896839976
-120 80.0652008 67.3131027 0.627719998 0.809480011
-60 299.48999 60 0.621699989 0.990440011
-30 300.480988 90 0.297729999 0.117399998
-30 334.518005 60 0.297729999 0.145480007
-60 299.48999 60 0.273039997 0.116590001
-60 209.188995 90 0.273039997 0.0421199985
0 264.450012 60 0.936800003 0.123659998
-30 334.518005 60 0.936800003 0.181449994
30 207.643997 90 0.912109971 0.00874000043
30 230.828003 60 0.912109971 0.0278600007
0 264.450012 60 0.887419999 0.05559
0 227.970993 90 0.887419999 0.0254999995
60 208.268005 90 0.991280019 0.460330009
60 298.678009 60 0.966589987 0.53490001
30 230.828003 60 0.966589987 0.47894001
30 207.643997 90 0.991280019 0.459820002
90 316.31601 60 0.689660013 0.634249985
60 298.678009 60 0.664969981 0.619710028
120 225.897003 60 0.714349985 0.559679985
150 140.425003 60 0.107469998 0.202309996
120 225.897003 60 0.107469998 0.272799999
120 214.557007 90 0.0827800035 0.263449997
180 59.9159012 60 0.107469998 0.135920003
210 8.36085987 60 0.107469998 0.0934000015
240 -15.6496 60 0.429210007 0.560559988
210 8.36085987 60 0.404529989 0.560559988
274.690002 -39.1731987 60 0.457760006 0.560559988
295.207001 -62.6581993 60 0.413919985 0.123719998
274.690002 -39.1731987 60 0.413919985 0.143089995
-275.079987 -37.0858994 30 0.597010016 0.712870002
-287.200012 -67.5780029 30 0.597010016 0.687720001
-240 -8.2160902 30 0.850399971 0.297890007
-275.079987 -37.0858994 30 0.821529984 0.297890007
-210 6.82387018 30 0.875090003 0.297890007
-180 41.453701 30 0.597010016 0.777639985
-210 6.82387018 30 0.597010016 0.749080002
-210 15.5184002 60 0.621699989 0.756250024
-150 81.3106003 30 0.597010016 0.81050998
-120 162.830994 30 0.597010016 0.877740026
-90 294.119995 30 0.597010016 0.986010015
-60 255.078995 30 0.978929996 0.144820005
-90 294.119995 30 0.954240024 0.177019998
-90 185.992004 60 0.954240024 0.0878399983
-60 299.48999 60 0.978929996 0.181449994
-30 334.518005 60 0.941900015 0.644110024
-30 258.42099 30 0.941900015 0.581350029
-60 255.078995 30 0.966589987 0.578589976
-60 299.48999 60 0.966589987 0.61522001
0 264.450012 60 0.917219996 0.586319983
0 270.667999 30 0.917219996 0.591449976
30 230.828003 60 0.949150026 0.364850014
30 319.365997 30 0.924459994 0.437869996
0 270.667999 30 0.924459994 0.397709996
0 264.450012 60 0.949150026 0.392580003
60 298.678009 60 0.79727 0.10729
60 362.342987 30 0.79727 0.159789994
30 319.365997 30 0.772580028 0.124349996
30 230.828003 60 0.772580028 0.0513300002
90 316.31601 60 0.825709999 0.581330001
90 271.667999 30 0.850399971 0.544510007
60 362.342987 30 0.850399971 0.619289994
60 298.678009 60 0.825709999 0.566789985
123.738998 185.177002 14.7168999 0.14474 0.239219993
90 271.667999 30 0.132159993 0.310550004
90 316.31601 60 0.107469998 0.347369999
150 135.052002 30 0.132159993 0.19788
186.018997 47.9346008 30 0.132159993 0.126039997
210 -1.49357998 30 0.132159993 0.0852700025
240 -24.6196003 30 0.429210007 0.585300028
210 -1.49357998 30 0.404529989 0.585300028
272.684998 -42.259201 30 0.456110001 0.585300028
295.207001 -62.6581993 60 0.474649996 0.560559988
295.207001 -62.6581993 30 0.474649996 0.585300028
-274.502991 -37.6743011 -0 0.572319984 0.712379992
-287.200012 -67.5780029 -0 0.572319984 0.687720001
-240 -6.64610004 -0 0.850399971 0.322629988
-274.502991 -37.6743011 -0 0.822009981 0.322629988
-210 21.7388 -0 0.875090003 0.322629988
-180 54.4308014 -0 0.572319984 0.788339972
-210 21.7388 -0 0.572319984 0.761380017
-150 129.186996 -0 0.572319984 0.84999001
-120 228.358994 -0 0.572319984 0.931779981
-90 229.264999 -0 0.95660001 0.937770009
-120 228.358994 -0 0.931919992 0.937030017
-120 162.830994 30 0.931919992 0.882990003
-90 294.119995 30 0.95660001 0.991259992
-60 255.078995 30 0.954240024 0.0381699987
-60 243.796005 -0 0.954240024 0.0288600009
-90 229.264999 -0 0.978929996 0.01688
-90 294.119995 30 0.978929996 0.0703599975
-30 258.42099 30 0.730449975 0.0855700001
-30 255.535004 -0 0.730449975 0.110310003
-60 243.796005 -0 0.705760002 0.110310003
-60 255.078995 30 0.705760002 0.0855700001
0 270.667999 30 0.755140007 0.0855700001
0 263.233002 -0 0.755140007 0.110310003
30 328.912994 -0 0.899770021 0.445740014
0 263.233002 -0 0.899770021 0.391579986
60 362.342987 30 0.924459994 0.473309994
60 360.234009 -0 0.899770021 0.471569985
90 236.617004 -0 0.875090003 0.51560998
60 360.234009 -0 0.875090003 0.617550015
123.738998 185.177002 14.7168999 0.931919992 0.671060026
120 202.617004 -0 0.934989989 0.685440004
90 236.617004 -0 0.959680021 0.713479996
90 271.667999 30 0.959680021 0.742389977
150 155.442001 -0 0.156849995 0.214699998
120 202.617004 -0 0.156849995 0.253600001
180 53.5638008 -0 0.156849995 0.130679995
210 1.79152 -0 0.156849995 0.0879800022
240 -25.1058006 -0 0.429210007 0.610040009
210 1.79152 -0 0.404529989 0.610040009
271.924988 -43.4289017 -0 0.455489993 0.610040009
295.207001 -62.6581993 -0 0.474649996 0.610040009
-274.467987 -37.7104988 -30 0.547640026 0.712350011
-287.200012 -67.5780029 -30 0.547640026 0.687720001
-240 -5.57071018 -30 0.850399971 0.347369999
-274.467987 -37.7104988 -30 0.822040021 0.347369999
-210 25.9202995 -30 0.547640026 0.764829993
-240 -5.57071018 -30 0.547640026 0.738860011
-240 -6.64610004 -0 0.572319984 0.737969995
-180 78.9775009 -30 0.547640026 0.808589995
-150 128.380005 -30 0.547640026 0.849330008
-120 224.082001 -30 0.547640026 0.928250015
-90 229.264999 -0 0.572319984 0.932529986
-90 255.613998 -30 0.547640026 0.954259992
-60 249.876999 -30 0.705760002 0.135049999
-90 255.613998 -30 0.681079984 0.135049999
-90 229.264999 -0 0.681079984 0.110310003
-30 255.533997 -30 0.730449975 0.135049999
0 299.941986 -30 0.875090003 0.421849996
-30 255.533997 -30 0.875090003 0.385230005
-30 255.535004 -0 0.899770021 0.385230005
30 352.493988 -30 0.875090003 0.465189993
60 392.428986 -30 0.875090003 0.498129994
90 327.102997 -30 0.899770021 0.590229988
60 392.428986 -30 0.899770021 0.644110024
120 202.617004 -0 0.845290005 0.0787800029
120 251.039001 -30 0.845290005 0.118720002
90 327.102997 -30 0.820609987 0.181449994
90 236.617004 -0 0.820609987 0.106820002
150 155.442001 -0 0.869979978 0.0398800001
150 217.574997 -30 0.869979978 0.0911199972
180 119.114998 -30 0.181529999 0.184740007
150 217.574997 -30 0.181529999 0.265940011
210 25.4421997 -30 0.181529999 0.107490003
240 -25.1058006 -0 0.156849995 0.0658000037
240 -14.8804998 -30 0.181529999 0.0742300004
273.050995 -41.6954002 -30 0.456409991 0.63477999
240 -14.8804998 -30 0.429210007 0.63477999
295.207001 -62.6581993 -30 0.474649996 0.63477999
-275.403015 -36.7563019 -60 0.522949994 0.713140011
-287.200012 -67.5780029 -60 0.522949994 0.687720001
-240 7.85942984 -60 0.522949994 0.749930024
-210 50.948101 -60 0.522949994 0.785470009
-180 87.0688019 -60 0.522949994 0.815259993
-150 122.061996 -60 0.522949994 0.844120026
-120 194.584 -60 0.522949994 0.903930008
-90 284.06601 -60 0.522949994 0.977720022
-60 272.321014 -60 0.705760002 0.159789994
-90 284.06601 -60 0.681079984 0.159789994
-30 259.921997 -60 0.730449975 0.159789994
0 314.427002 -60 0.850399971 0.433800012
-30 259.921997 -60 0.850399971 0.388850003
30 353.415009 -60 0.850399971 0.465950012
60 392.428986 -30 0.755140007 0.00910999998
60 326.485992 -60 0.755140007 0.0338499993
30 353.415009 -60 0.730449975 0.0338499993
30 352.493988 -30 0.730449975 0.00910999998
90 327.102997 -30 0.966589987 0.388469994
90 298.470001 -60 0.966589987 0.364850014
60 326.485992 -60 0.991280019 0.387959987
60 392.428986 -30 0.991280019 0.442339987
120 251.039001 -30 0.941900015 0.536369979
120 270.372986 -60 0.941900015 0.56111002
90 298.470001 -60 0.917219996 0.56111002
90 327.102997 -30 0.917219996 0.536369979
150 213.453995 -60 0.206220001 0.262540013
120 270.372986 -60 0.206220001 0.309480011
120 251.039001 -30 0.181529999 0.293540001
180 132.382004 -60 0.206220001 0.195680007
210 65.7316971 -60 0.206220001 0.140719995
240 6.3489399 -60 0.206220001 0.0917399973
273.050995 -41.6954002 -30 0.181529999 0.0521200001
275.651001 -37.6946983 -60 0.206220001 0.0554200001
295.207001 -62.6581993 -30 0.181529999 0.0348300003
295.207001 -62.6581993 -60 0.206220001 0.0348300003
-275.596985 -36.5583 -90 0.498259991 0.71329999
-287.200012 -67.5780029 -90 0.498259991 0.687720001
-240 11.1591997 -90 0.498259991 0.752659976
-210 41.7131996 -90 0.498259991 0.777849972
-180 87.0688019 -60 0.349940002 0.162949994
-180 65.1190033 -90 0.349940002 0.187700003
-210 41.7131996 -90 0.32525 0.187700003
-210 50.948101 -60 0.32525 0.162949994
-150 122.061996 -60 0.374630004 0.162949994
-150 90.7111969 -90 0.374630004 0.187700003
-120 142.386002 -90 0.498259991 0.860880017
-150 90.7111969 -90 0.498259991 0.818260014
-90 284.06601 -60 0.308010012 0.943809986
-90 170.162003 -90 0.308010012 0.849870026
-120 142.386002 -90 0.332700014 0.826969981
-120 194.584 -60 0.332700014 0.870010018
-60 272.321014 -60 0.28332001 0.934119999
-60 214.904999 -90 0.28332001 0.88677001
-30 259.921997 -60 0.258630008 0.923900008
-30 244.619003 -90 0.258630008 0.911279976
0 314.427002 -60 0.628750026 0.00910999998
0 260.431 -90 0.628750026 0.0338499993
-30 244.619003 -90 0.604059994 0.0338499993
-30 259.921997 -60 0.604059994 0.00910999998
30 341.60199 -90 0.825709999 0.456209987
0 260.431 -90 0.825709999 0.389270008
60 326.485992 -60 0.791040003 0.96904999
60 291.076996 -90 0.815720022 0.939849973
30 341.60199 -90 0.815720022 0.981519997
30 353.415009 -60 0.791040003 0.991259992
90 298.470001 -60 0.791040003 0.945949972
90 209.046997 -90 0.815720022 0.872200012
120 270.372986 -60 0.63894999 0.324200004
120 150.516998 -90 0.63894999 0.225360006
90 209.046997 -90 0.663630009 0.273620009
90 298.470001 -60 0.663630009 0.347369999
150 213.453995 -60 0.614260018 0.277260005
150 98.8345032 -90 0.614260018 0.182730004
180 132.382004 -60 0.589569986 0.2104
180 68.6314011 -90 0.589569986 0.157820001
210 65.7316971 -60 0.564880013 0.155430004
210 21.4109993 -90 0.564880013 0.118880004
240 6.3489399 -60 0.540199995 0.106459998
240 2.83355999 -90 0.540199995 0.103560001
277.562988 -34.7513008 -90 0.230910003 0.0578499995
240 2.83355999 -90 0.230910003 0.0888400003
295.207001 -62.6581993 -90 0.230910003 0.0348300003
-274.601013 -37.5750008 -120 0.473569989 0.712459981
-287.200012 -67.5780029 -120 0.473569989 0.687720001
-240 6.48999977 -120 0.473569989 0.74879998
-210 34.4379005 -120 0.32525 0.212439999
-240 6.48999977 -120 0.300570011 0.212439999
-240 11.1591997 -90 0.300570011 0.187700003
-180 49.5368996 -120 0.349940002 0.212439999
-150 69.1458969 -120 0.374630004 0.212439999
-120 142.386002 -90 0.399320006 0.187700003
-120 56.2998009 -120 0.399320006 0.212439999
-90 60.0480003 -120 0.308010012 0.759060025
-120 56.2998009 -120 0.332700014 0.755970001
-60 94.7292023 -126.271004 0.28332001 0.787660003
-30 128.395004 -120 0.258630008 0.815429986
0 260.431 -90 0.233950004 0.924319983
0 212.061005 -120 0.233950004 0.884429991
30 341.60199 -90 0.209260002 0.991259992
30 249.065002 -120 0.209260002 0.91494
60 291.076996 -90 0.18457 0.949590027
60 261.658997 -120 0.18457 0.925329983
90 166.132004 -120 0.840409994 0.836809993
60 261.658997 -120 0.840409994 0.915589988
120 150.516998 -90 0.815720022 0.823930025
120 95.6041031 -120 0.840409994 0.778639972
150 43.9283981 -120 0.614260018 0.137449995
120 95.6041031 -120 0.63894999 0.180069998
180 21.4106998 -120 0.589569986 0.118880004
210 -1.16771996 -120 0.564880013 0.100259997
240 2.83355999 -90 0.755140007 0.177269995
240 -12.4078999 -120 0.755140007 0.202010006
210 -1.16771996 -120 0.730449975 0.202010006
210 21.4109993 -90 0.730449975 0.177269995
277.562988 -34.7513008 -90 0.786050022 0.177269995
274.875 -38.888401 -120 0.783840001 0.202010006
295.207001 -62.6581993 -120 0.255600005 0.0348300003
274.875 -38.888401 -120 0.255600005 0.0544300005
-273.453003 -38.7463989 -150 0.448890001 0.711499989
-287.200012 -67.5780029 -150 0.448890001 0.687720001
-240 -4.19931984 -150 0.448890001 0.739989996
-210 21.4221992 -150 0.32525 0.237179995
-240 -4.19931984 -150 0.300570011 0.237179995
-180 33.3726006 -150 0.349940002 0.237179995
-150 44.3390999 -150 0.374630004 0.237179995
-121.385002 34.5048981 -152.598007 0.398180008 0.239319995
-90 60.0480003 -120 0.423999995 0.212439999
-91.6427994 38.4235001 -152.350006 0.422650009 0.239120007
-60 94.7292023 -126.271004 0.448689997 0.217610002
-60 48.1082993 -150 0.448689997 0.237179995
-30 83.9688034 -150 0.258630008 0.778789997
-60 48.1082993 -150 0.28332001 0.74921
0 212.061005 -120 0.95660001 0.865509987
0 130.931 -150 0.931919992 0.798600018
-30 83.9688034 -150 0.931919992 0.759869993
-30 128.395004 -120 0.95660001 0.796509981
30 161.259995 -150 0.209260002 0.842530012
0 130.931 -150 0.233950004 0.817520022
60 232.542007 -150 0.18457 0.901319981
90 131.701004 -150 0.865100026 0.808409989
60 232.542007 -150 0.865100026 0.891579986
120 66.1072998 -150 0.865100026 0.754320025
150 43.9283981 -120 0.840409994 0.736029983
150 29.2840004 -150 0.865100026 0.723950028
180 21.4106998 -120 0.705760002 0.202010006
180 10.1032 -150 0.705760002 0.226750001
150 29.2840004 -150 0.681079984 0.226750001
150 43.9283981 -120 0.681079984 0.202010006
210 -8.05366039 -150 0.730449975 0.226750001
240 -22.6595001 -150 0.755140007 0.226750001
273.191986 -41.4785004 -150 0.78245002 0.226750001
295.207001 -62.6581993 -120 0.800570011 0.202010006
295.207001 -62.6581993 -150 0.800570011 0.226750001
-271.035004 -41.2123985 -180 0.424199998 0.70946002
-287.200012 -67.5780029 -180 0.424199998 0.687720001
-240 -13.5528002 -180 0.300570011 0.261920005
-271.035004 -41.2123985 -180 0.275029987 0.261920005
-273.453003 -38.7463989 -150 0.273039997 0.237179995
-210 8.81206036 -180 0.32525 0.261920005
-180 19.3271008 -180 0.349940002 0.261920005
-150 24.1000996 -180 0.374630004 0.261920005
-119.116997 18.8567009 -178.160995 0.400040001 0.260399997
-89.5568008 24.2544003 -178.710999 0.424369991 0.260859996
-60 20.0767994 -180 0.448689997 0.261920005
-30 83.9688034 -150 0.473379999 0.237179995
-30 36.4502983 -180 0.473379999 0.261920005
0 68.6598969 -180 0.233950004 0.766160011
-30 36.4502983 -180 0.258630008 0.739600003
30 93.7013016 -180 0.209260002 0.786809981
60 137.703003 -180 0.18457 0.823099971
90 131.701004 -150 0.159879997 0.818149984
90 105.664001 -180 0.159879997 0.796679974
120 49.8872986 -180 0.889789999 0.740939975
90 105.664001 -180 0.889789999 0.786939979
150 16.3836002 -180 0.889789999 0.713310003
180 -3.56797004 -180 0.705760002 0.25150001
150 16.3836002 -180 0.681079984 0.25150001
210 -19.1445007 -180 0.730449975 0.25150001
240 -27.6620998 -180 0.755140007 0.25150001
271.835999 -43.5657997 -180 0.781340003 0.25150001
295.207001 -62.6581993 -180 0.800570011 0.25150001
-269.447998 -42.8311005 -210 0.399509996 0.708130002
-287.200012 -67.5780029 -210 0.399509996 0.687720001
-240 -20.4585991 -210 0.300570011 0.286659986
-269.447998 -42.8311005 -210 0.276329994 0.286659986
-210 -10.6729002 -210 0.32525 0.286659986
-180 -2.07500005 -210 0.349940002 0.286659986
-150 3.02402997 -210 0.374630004 0.286659986
-120 1.48447001 -210 0.399320006 0.286659986
-90 1.41683996 -210 0.423999995 0.286659986
-60 9.2450304 -210 0.448689997 0.286659986
-30 9.03606033 -210 0.473379999 0.286659986
0 68.6598969 -180 0.498070002 0.261920005
0 17.8736992 -210 0.498070002 0.286659986
30 45.1292 -210 0.209260002 0.746760011
0 17.8736992 -210 0.233950004 0.72428
60 68.6981964 -210 0.18457 0.766189992
90 75.0586014 -210 0.159879997 0.771440029
120 34.906601 -210 0.914470017 0.728579998
90 75.0586014 -210 0.914470017 0.761699975
150 4.31675005 -210 0.914470017 0.703360021
180 -13.2384996 -210 0.705760002 0.276239991
150 4.31675005 -210 0.681079984 0.276239991
210 -25.8955994 -210 0.730449975 0.276239991
240 -32.1011009 -210 0.755140007 0.276239991
271.292999 -44.4009018 -210 0.780889988 0.276239991
295.207001 -62.6581993 -210 0.800570011 0.276239991
-269.447998 -42.8311005 -210 0.839959979 0.685880005
-238.740997 -45.0661011 -252.695007 0.814689994 0.684029996
-210 -69.4484024 -283.617004 0.791040003 0.663929999
-287.200012 -67.5780029 -210 0.854569972 0.665470004
-240 -20.4585991 -210 0.508620024 0.145480007
-240 -28.4295006 -240 0.483940005 0.138899997
-238.740997 -45.0661011 -252.695007 0.47349 0.125180006
-269.447998 -42.8311005 -210 0.508620024 0.127020001
-210 -25.2096004 -240 0.32525 0.311399996
-240 -28.4295006 -240 0.300570011 0.311399996
-180 -20.6261005 -240 0.349940002 0.311399996
-150 -17.4090996 -240 0.374630004 0.311399996
-120 -16.7754993 -240 0.399320006 0.311399996
-90 -10.6454 -240 0.423999995 0.311399996
-60 -3.82424998 -240 0.448689997 0.311399996
-30 -13.1356001 -240 0.473379999 0.311399996
0 -14.2642002 -240 0.498070002 0.311399996
30 -5.73243999 -240 0.209260002 0.704810023
0 -14.2642002 -240 0.233950004 0.697780013
60 4.92047024 -240 0.18457 0.71359998
90 19.0585003 -240 0.159879997 0.725260019
120 34.906601 -210 0.135199994 0.738330007
120 4.84273005 -240 0.135199994 0.713530004
150 4.31675005 -210 0.110509999 0.713100016
150 -14.2558002 -240 0.110509999 0.697780013
180 -25.0825005 -240 0.705760002 0.300980002
150 -14.2558002 -240 0.681079984 0.300980002
210 -31.9211998 -240 0.730449975 0.300980002
240 -35.0957985 -240 0.755140007 0.300980002
270.868011 -45.0545998 -240 0.780539989 0.300980002
295.207001 -62.6581993 -240 0.800570011 0.300980002
30 -40.7811012 -269.97699 0.209260002 0.675909996
30 -69.4484024 -283.617004 0.209260002 0.652260005
60 -39.9546013 -270.816986 0.18457 0.676590025
60 -69.4484024 -283.617004 0.18457 0.652260005
90 -37.9445992 -272.859009 0.159879997 0.678250015
90 -69.4484024 -283.617004 0.159879997 0.652260005
-180 -43.5381012 -267.174988 0.349940002 0.333810002
-238.740997 -45.0661011 -252.695007 0.301600009 0.321869999
-150 -43.2468987 -267.471008 0.374630004 0.334060013
-120 -41.8328018 -268.90799 0.399320006 0.335240006
-90 -39.9329987 -270.838989 0.423999995 0.33682999
-60 -38.8974991 -271.890991 0.448689997 0.337700009
-30 -13.1356001 -240 0.258630008 0.698710024
-60 -38.8974991 -271.890991 0.28332001 0.677460015
-60 -3.82424998 -240 0.28332001 0.706390023
0 -40.8516006 -269.904999 0.498070002 0.336059988
-30 -39.6660004 -271.109985 0.473379999 0.337060004
30 -5.73243999 -240 0.52275002 0.311399996
30 -40.7811012 -269.97699 0.52275002 0.336120009
120 -38.9529991 -271.834991 0.135199994 0.677410007
150 -42.9403 -267.78299 0.110509999 0.674130023
180 -25.0825005 -240 0.0858199969 0.688849986
210 -46.3143997 -264.354004 0.730449975 0.321060002
180 -44.9406013 -265.75 0.705760002 0.322210014
240 -47.0984993 -263.557007 0.755140007 0.320410013
120 -69.4484024 -283.617004 0.135199994 0.652260005
150 -69.4484024 -283.617004 0.110509999 0.652260005
-180 -69.4484024 -283.617004 0.349940002 0.347369999
-210 -69.4484024 -283.617004 0.32525 0.347369999
-150 -43.2468987 -267.471008 0.357380003 0.673870027
-150 -69.4484024 -283.617004 0.357380003 0.652260005
-180 -69.4484024 -283.617004 0.382070005 0.652260005
-180 -43.5381012 -267.174988 0.382070005 0.673629999
-120 -41.8328018 -268.90799 0.332700014 0.675040007
-120 -69.4484024 -283.617004 0.332700014 0.652260005
-90 -39.9329987 -270.838989 0.308010012 0.676609993
-90 -69.4484024 -283.617004 0.308010012 0.652260005
-60 -69.4484024 -283.617004 0.28332001 0.652260005
3 0 1 2
3 0 2 3
3 4 5 1
3 4 1 0
3 6 7 8
3 6 8 9
3 10 11 7
3 10 7 6
3 12 13 14
3 12 14 15
3 16 17 13
3 16 13 12
3 18 19 17
3 18 17 16
3 20 21 19
3 20 19 18
3 22 23 21
3 22 21 20
3 24 25 23
3 24 23 22
3 26 27 25
3 26 25 24
3 28 29 27
3 28 27 26
3 30 31 29
3 30 29 28
3 32 33 31
3 32 31 30
3 34 35 33
3 34 33 32
3 36 37 35
3 36 35 34
3 38 39 37
3 38 37 36
3 40 41 39
3 40 39 38
3 42 43 44
3 42 44 45
3 46 47 48
3 46 48 49
3 50 51 5
3 50 5 4
3 52 53 54
3 52 54 55
3 7 56 57
3 7 57 8
3 11 58 56
3 11 56 7
3 59 60 58
3 59 58 11
3 61 62 60
3 61 60 59
3 63 64 62
3 63 62 61
3 65 66 64
3 65 64 63
3 67 68 66
3 67 66 65
3 69 70 68
3 69 68 67
3 71 72 70
3 71 70 69
3 73 74 72
3 73 72 71
3 75 76 74
3 75 74 73
3 77 78 76
3 77 76 75
3 79 80 78
3 79 78 77
3 81 82 80
3 81 80 79
3 83 84 82
3 83 82 81
3 44 85 84
3 44 84 83
3 43 86 85
3 43 85 44
3 87 88 86
3 87 86 43
3 89 90 91
3 89 91 92
3 57 93 94
3 57 94 8
3 56 95 93
3 56 93 57
3 58 96 95
3 58 95 56
3 60 97 96
3 60 96 58
3 62 98 97
3 62 97 60
3 99 100 101
3 99 101 102
3 103 104 100
3 103 100 99
3 105 106 104
3 105 104 103
3 70 107 108
3 70 108 68
3 109 110 111
3 109 111 112
3 74 113 114
3 74 114 72
3 76 115 113
3 76 113 74
3 78 116 115
3 78 115 76
3 80 117 116
3 80 116 78
3 82 118 117
3 82 117 80
3 84 119 118
3 84 118 82
3 85 120 119
3 85 119 84
3 86 121 120
3 86 120 85
3 88 122 121
3 88 121 86
3 123 124 125
3 123 125 126
3 93 127 128
3 93 128 94
3 95 129 127
3 95 127 93
3 130 131 132
3 130 132 133
3 134 135 131
3 134 131 130
3 101 136 137
3 101 137 138
3 100 139 136
3 100 136 101
3 104 140 139
3 104 139 100
3 106 141 140
3 106 140 104
3 111 142 141
3 111 141 106
3 110 143 142
3 110 142 111
3 113 144 145
3 113 145 114
3 115 146 144
3 115 144 113
3 116 147 146
3 116 146 115
3 117 148 147
3 117 147 116
3 149 150 151
3 149 151 152
3 153 154 150
3 153 150 149
3 120 155 156
3 120 156 119
3 121 157 155
3 121 155 120
3 122 158 157
3 122 157 121
3 124 159 160
3 124 160 125
3 127 161 162
3 127 162 128
3 132 163 164
3 132 164 165
3 131 166 163
3 131 163 132
3 135 167 166
3 135 166 131
3 168 169 167
3 168 167 135
3 170 171 172
3 170 172 173
3 174 175 176
3 174 176 177
3 141 178 179
3 141 179 140
3 142 180 178
3 142 178 141
3 181 182 183
3 181 183 184
3 185 186 187
3 185 187 143
3 188 189 186
3 188 186 185
3 190 191 189
3 190 189 188
3 151 192 191
3 151 191 190
3 150 193 192
3 150 192 151
3 154 194 193
3 154 193 150
3 195 196 197
3 195 197 198
3 157 199 200
3 157 200 155
3 201 202 203
3 201 203 204
3 159 205 206
3 159 206 160
3 164 207 205
3 164 205 159
3 163 208 207
3 163 207 164
3 209 210 211
3 209 211 212
3 213 214 210
3 213 210 209
3 215 216 214
3 215 214 213
3 176 217 218
3 176 218 169
3 175 219 217
3 175 217 176
3 220 221 219
3 220 219 175
3 180 222 223
3 180 223 178
3 187 224 222
3 187 222 180
3 186 225 224
3 186 224 187
3 189 226 225
3 189 225 186
3 191 227 226
3 191 226 189
3 192 228 227
3 192 227 191
3 193 229 228
3 193 228 192
3 197 230 231
3 197 231 232
3 196 233 230
3 196 230 197
3 199 234 235
3 199 235 200
3 202 236 237
3 202 237 203
3 205 238 239
3 205 239 206
3 207 240 238
3 207 238 205
3 208 241 240
3 208 240 207
3 210 242 243
3 210 243 211
3 214 244 242
3 214 242 210
3 245 246 247
3 245 247 248
3 217 249 250
3 217 250 218
3 219 251 249
3 219 249 217
3 221 252 251
3 221 251 219
3 253 254 255
3 253 255 256
3 257 258 259
3 257 259 260
3 225 261 262
3 225 262 224
3 226 263 261
3 226 261 225
3 227 264 263
3 227 263 226
3 228 265 264
3 228 264 227
3 231 266 267
3 231 267 268
3 230 269 266
3 230 266 231
3 235 270 271
3 235 271 272
3 234 273 270
3 234 270 235
3 236 274 275
3 236 275 237
3 238 276 277
3 238 277 239
3 278 279 280
3 278 280 281
3 243 282 279
3 243 279 278
3 242 283 282
3 242 282 243
3 284 285 286
3 284 286 287
3 288 289 290
3 288 290 291
3 249 292 293
3 249 293 250
3 251 294 292
3 251 292 249
3 295 296 297
3 295 297 298
3 254 299 300
3 254 300 255
3 301 302 303
3 301 303 304
3 305 306 307
3 305 307 308
3 263 309 310
3 263 310 261
3 264 311 309
3 264 309 263
3 267 312 313
3 267 313 314
3 266 315 312
3 266 312 267
3 269 316 315
3 269 315 266
3 270 317 318
3 270 318 271
3 273 319 317
3 273 317 270
3 274 320 321
3 274 321 275
3 276 322 323
3 276 323 277
3 279 324 325
3 279 325 280
3 282 326 324
3 282 324 279
3 286 327 328
3 286 328 329
3 285 330 327
3 285 327 286
3 293 331 330
3 293 330 285
3 292 332 331
3 292 331 293
3 333 334 335
3 333 335 336
3 337 338 339
3 337 339 340
3 341 342 338
3 341 338 337
3 343 344 345
3 343 345 346
3 347 348 349
3 347 349 350
3 351 352 353
3 351 353 354
3 313 355 356
3 313 356 357
3 312 358 355
3 312 355 313
3 315 359 358
3 315 358 312
3 316 360 359
3 316 359 315
3 317 361 362
3 317 362 318
3 319 363 361
3 319 361 317
3 364 365 363
3 364 363 319
3 322 366 367
3 322 367 323
3 324 368 369
3 324 369 325
3 326 370 368
3 326 368 324
3 327 371 372
3 327 372 328
3 330 373 371
3 330 371 327
3 331 374 373
3 331 373 330
3 375 376 377
3 375 377 378
3 379 380 381
3 379 381 382
3 383 384 385
3 383 385 386
3 387 388 384
3 387 384 383
3 344 389 390
3 344 390 345
3 391 392 389
3 391 389 344
3 352 393 394
3 352 394 353
3 395 396 397
3 395 397 398
3 358 399 400
3 358 400 355
3 359 401 399
3 359 399 358
3 360 402 401
3 360 401 359
3 361 403 404
3 361 404 362
3 363 405 403
3 363 403 361
3 365 406 405
3 365 405 363
3 366 407 408
3 366 408 367
3 368 409 410
3 368 410 369
3 372 411 412
3 372 412 413
3 371 414 411
3 371 411 372
3 373 415 414
3 373 414 371
3 374 416 415
3 374 415 373
3 417 418 416
3 417 416 374
3 385 419 420
3 385 420 421
3 384 422 419
3 384 419 385
3 390 423 424
3 390 424 425
3 389 426 423
3 389 423 390
3 392 427 426
3 392 426 389
3 393 428 429
3 393 429 394
3 430 431 432
3 430 432 433
3 434 435 431
3 434 431 430
3 401 436 437
3 401 437 399
3 402 438 436
3 402 436 401
3 439 440 438
3 439 438 402
3 405 441 442
3 405 442 403
3 406 443 441
3 406 441 405
3 407 444 445
3 407 445 408
3 412 446 444
3 412 444 407
3 411 447 446
3 411 446 412
3 414 448 447
3 414 447 411
3 415 449 448
3 415 448 414
3 416 450 449
3 416 449 415
3 418 451 450
3 418 450 416
3 419 452 453
3 419 453 420
3 422 454 452
3 422 452 419
3 423 455 456
3 423 456 424
3 426 457 455
3 426 455 423
3 458 459 460
3 458 460 461
3 462 463 464
3 462 464 465
3 466 467 468
3 466 468 469
3 437 470 471
3 437 471 472
3 436 473 470
3 436 470 437
3 438 474 473
3 438 473 436
3 440 475 474
3 440 474 438
3 476 477 475
3 476 475 440
3 478 479 477
3 478 477 476
3 444 480 481
3 444 481 445
3 446 482 480
3 446 480 444
3 447 483 482
3 447 482 446
3 484 485 486
3 484 486 487
3 488 489 485
3 488 485 484
3 450 490 491
3 450 491 449
3 492 493 494
3 492 494 495
3 496 497 493
3 496 493 492
3 498 499 497
3 498 497 496
3 500 501 502
3 500 502 503
3 457 504 505
3 457 505 455
3 506 507 508
3 506 508 509
3 510 511 507
3 510 507 506
3 512 513 514
3 512 514 515
3 516 517 513
3 516 513 512
3 518 519 517
3 518 517 516
3 520 521 519
3 520 519 518
3 522 523 521
3 522 521 520
3 477 524 525
3 477 525 475
3 479 526 524
3 479 524 477
3 480 527 528
3 480 528 481
3 482 529 527
3 482 527 480
3 486 530 531
3 486 531 532
3 485 533 530
3 485 530 486
3 489 534 533
3 489 533 485
3 535 536 534
3 535 534 489
3 493 537 538
3 493 538 494
3 497 539 537
3 497 537 493
3 499 540 539
3 499 539 497
3 541 542 540
3 541 540 499
3 543 544 542
3 543 542 541
3 545 546 544
3 545 544 543
3 511 547 548
3 511 548 507
3 549 550 547
3 549 547 511
3 517 551 552
3 517 552 513
3 519 553 551
3 519 551 517
3 521 554 553
3 521 553 519
3 555 556 557
3 555 557 558
3 559 560 556
3 559 556 555
3 526 561 562
3 526 562 524
3 527 563 564
3 527 564 528
3 529 565 563
3 529 563 527
3 530 566 567
3 530 567 531
3 533 568 566
3 533 566 530
3 534 569 568
3 534 568 533
3 536 570 569
3 536 569 534
3 571 572 570
3 571 570 536
3 573 574 572
3 573 572 571
3 540 575 576
3 540 576 539
3 577 578 579
3 577 579 580
3 544 581 582
3 544 582 542
3 546 583 581
3 546 581 544
3 547 584 585
3 547 585 548
3 550 586 584
3 550 584 547
3 587 588 586
3 587 586 550
3 589 590 591
3 589 591 592
3 557 593 590
3 557 590 589
3 556 594 593
3 556 593 557
3 560 595 594
3 560 594 556
3 596 597 595
3 596 595 560
3 563 598 599
3 563 599 564
3 567 600 601
3 567 601 602
3 566 603 600
3 566 600 567
3 568 604 603
3 568 603 566
3 569 605 604
3 569 604 568
3 570 606 605
3 570 605 569
3 572 607 606
3 572 606 570
3 574 608 607
3 574 607 572
3 609 610 608
3 609 608 574
3 582 611 612
3 582 612 575
3 581 613 611
3 581 611 582
3 583 614 613
3 583 613 581
3 615 616 614
3 615 614 583
3 586 617 618
3 586 618 584
3 588 619 617
3 588 617 586
3 590 620 621
3 590 621 591
3 593 622 620
3 593 620 590
3 594 623 622
3 594 622 593
3 595 624 623
3 595 623 594
3 597 625 624
3 597 624 595
3 598 626 627
3 598 627 599
3 600 628 629
3 600 629 601
3 603 630 628
3 603 628 600
3 604 631 630
3 604 630 603
3 605 632 631
3 605 631 604
3 606 633 632
3 606 632 605
3 607 634 633
3 607 633 606
3 608 635 634
3 608 634 607
3 610 636 635
3 610 635 608
3 637 638 636
3 637 636 610
3 613 639 640
3 613 640 611
3 614 641 639
3 614 639 613
3 616 642 641
3 616 641 614
3 617 643 644
3 617 644 618
3 619 645 643
3 619 643 617
3 620 646 647
3 620 647 621
3 622 648 646
3 622 646 620
3 623 649 648
3 623 648 622
3 624 650 649
3 624 649 623
3 625 651 650
3 625 650 624
3 652 653 654
3 652 654 655
3 656 657 658
3 656 658 659
3 630 660 661
3 630 661 628
3 631 662 660
3 631 660 630
3 632 663 662
3 632 662 631
3 633 664 663
3 633 663 632
3 634 665 664
3 634 664 633
3 635 666 665
3 635 665 634
3 636 667 666
3 636 666 635
3 638 668 667
3 638 667 636
3 639 669 670
3 639 670 640
3 641 671 669
3 641 669 639
3 642 672 671
3 642 671 641
3 673 674 672
3 673 672 642
3 675 676 674
3 675 674 673
3 646 677 678
3 646 678 647
3 648 679 677
3 648 677 646
3 649 680 679
3 649 679 648
3 650 681 680
3 650 680 649
3 651 682 681
3 651 681 650
3 683 684 90
3 683 90 89
3 685 686 684
3 685 684 683
3 687 688 686
3 687 686 685
3 660 662 689
3 690 660 689
3 660 690 661
3 663 691 689
3 663 689 662
3 664 692 691
3 664 691 663
3 665 693 692
3 665 692 664
3 666 694 693
3 666 693 665
3 695 92 696
3 695 696 697
3 668 698 699
3 668 699 667
3 700 701 698
3 700 698 668
3 671 685 683
3 671 683 669
3 672 687 685
3 672 685 671
3 674 702 687
3 674 687 672
3 676 703 702
3 676 702 674
3 704 3 703
3 704 703 676
3 679 705 706
3 679 706 677
3 680 707 705
3 680 705 679
3 681 55 707
3 681 707 680
3 682 52 55
3 682 55 681
3 702 708 688
3 702 688 687
3 703 709 708
3 703 708 702
3 3 2 709
3 3 709 703
3 689 710 711
3 689 711 690
3 712 713 714
3 712 714 715
3 716 717 713
3 716 713 712
3 718 719 717
3 718 717 716
3 696 720 719
3 696 719 718
3 92 91 720
3 92 720 696
